<svg xmlns="http://www.w3.org/2000/svg" viewBox="0 0 128 128" width="128" height="128" role="img" aria-labelledby="title">
  <title id="title">Violet — five-petaled violet flower</title>
  <g fill="#6130A5">
    <path d="M64 65C52 60 21 55 17 37C14 25 22 9 31 8C49 8 65 25 64 65Z"/>
    <path d="M64 65C76 60 107 55 111 37C114 25 106 9 97 8C79 8 63 25 64 65Z"/>
    <path d="M64 62C47 51 25 48 12 58C-2 69 5 87 19 90C35 94 53 78 64 62Z"/>
    <path d="M64 62C81 51 103 48 116 58C130 69 123 87 109 90C93 94 75 78 64 62Z"/>
    <path d="M64 60C56 74 34 88 34 103C34 116 51 124 60 120Q64 118 68 120C77 124 94 116 94 103C94 88 72 74 64 60Z"/>
  </g>
  <g fill="#A779E4">
    <path d="M61 60C48 54 35 43 36 28C37 20 49 22 55 34C61 44 61 52 61 60Z"/>
    <path d="M67 60C80 54 93 43 92 28C91 20 79 22 73 34C67 44 67 52 67 60Z"/>
    <path d="M57 63C42 60 23 66 19 78C17 87 29 88 39 80Z"/>
    <path d="M71 63C86 60 105 66 109 78C111 87 99 88 89 80Z"/>
    <path d="M64 70C55 81 40 93 40 103C40 114 53 118 61 114Q64 112 67 114C75 118 88 114 88 103C88 93 73 81 64 70Z"/>
  </g>
  <g fill="#DCC3FA">
    <path d="M60 62C56 62 47 52 51 49C55 46 62 57 60 62Z"/>
    <path d="M68 62C72 62 81 52 77 49C73 46 66 57 68 62Z"/>
  </g>
  <path fill="#6130A5" d="M64 74C61 81 60 92 64 97C68 92 67 81 64 74Z"/>
  <path fill="#FFD447" d="M64 57C62 60 59 61 59 65C59 69 62 70 64 73C66 70 69 69 69 65C69 61 66 60 64 57Z"/>
</svg>
